<?xml version="1.0" encoding="utf-8"?>
<!-- Generator: Adobe Illustrator 21.0.2, SVG Export Plug-In . SVG Version: 6.00 Build 0)  -->
<svg version="1.1" id="Calque_1" xmlns="http://www.w3.org/2000/svg" xmlns:xlink="http://www.w3.org/1999/xlink" x="0px" y="0px"
	 viewBox="0 0 71.5 71.2" style="enable-background:new 0 0 71.5 71.2;" xml:space="preserve">
<style type="text/css">
	.st0{fill:none;stroke:#FFFFFF;stroke-width:4;stroke-miterlimit:10;}
	.st1{fill:#FFFFFF;}
</style>
<circle id="Cercle" class="st0" cx="35.7" cy="35.6" r="31.7"/>
<path id="Fleche" class="st1" d="M43.4,35.5c-0.1-0.9-0.4-1.7-1.1-2.4l0,0L32,22.8c-0.7-0.7-1.7-0.7-2.4,0l0,0
	c-0.7,0.7-0.7,1.7,0,2.4l9.6,9.6c0.4,0.4,0.4,1,0,1.4c0,0,0,0,0,0l-9.6,9.6c-0.7,0.7-0.7,1.7,0,2.4l0,0c0.7,0.7,1.7,0.7,2.4,0
	l10.3-10.4l0,0C42.9,37.3,43.3,36.5,43.4,35.5z"/>
</svg>
