<?xml version="1.0" encoding="iso-8859-1"?>
<!-- Generator: Adobe Illustrator 21.0.2, SVG Export Plug-In . SVG Version: 6.00 Build 0)  -->
<svg version="1.1" id="Calque_1" xmlns="http://www.w3.org/2000/svg" xmlns:xlink="http://www.w3.org/1999/xlink" x="0px" y="0px"
	 viewBox="0 0 43.554 43.601" style="enable-background:new 0 0 43.554 43.601;" xml:space="preserve">
<g>
	<path style="fill:#FFFFFF;" d="M19.527,3.176c0.185,0.332,0.498,0.57,0.765,0.843l0.818,0.813c0.542,0.549,1.06,1.123,1.567,1.712
		c0.998,1.189,1.911,2.467,2.682,3.84c1.565,2.729,2.551,5.87,2.66,9.104c0.055,3.23-0.78,6.461-2.358,9.208
		c-1.559,2.759-3.682,5.116-6.134,6.98c1.863-2.453,3.537-4.979,4.738-7.677c1.192-2.696,1.831-5.576,1.757-8.46
		c-0.063-2.888-0.853-5.744-2.049-8.453c-0.61-1.351-1.301-2.684-2.089-3.973c-0.378-0.656-0.795-1.29-1.204-1.936
		C20.291,4.523,19.789,3.913,19.527,3.176z"/>
</g>
<g>
	<path style="fill:#FFFFFF;" d="M16.027,28.676c0.273,0.906,0.461,1.825,0.622,2.749c0.147,0.925,0.281,1.856,0.342,2.794
		c0.073,0.94,0.099,1.886,0.051,2.85c-0.072,0.98-0.102,1.924-0.647,3.089l-1.14-1.436c1.114-0.313,2.184-0.514,3.298-0.651
		c1.106-0.132,2.229-0.18,3.354-0.121c1.123,0.065,2.256,0.228,3.335,0.619c1.065,0.389,2.107,0.971,2.786,1.857
		c-0.984-0.511-1.995-0.746-3.019-0.848c-1.019-0.115-2.057-0.08-3.086,0.004c-1.031,0.075-2.062,0.217-3.087,0.405
		c-1.018,0.182-2.067,0.394-3.035,0.643l-2.163,0.558l1.023-1.995c0.262-0.51,0.438-1.445,0.567-2.292
		c0.112-0.879,0.192-1.781,0.282-2.69l0.229-2.75C15.822,30.539,15.902,29.613,16.027,28.676z"/>
</g>
</svg>
