<?xml version="1.0" encoding="utf-8"?>
<!-- Generator: Adobe Illustrator 21.0.0, SVG Export Plug-In . SVG Version: 6.00 Build 0)  -->
<svg version="1.1" id="Calque_1" xmlns="http://www.w3.org/2000/svg" xmlns:xlink="http://www.w3.org/1999/xlink" x="0px" y="0px"
	 viewBox="0 0 87.3 89.3" style="enable-background:new 0 0 87.3 89.3;" xml:space="preserve">
<style type="text/css">
	.st0{fill-rule:evenodd;clip-rule:evenodd;fill:#FFFFFF;}
</style>
<path class="st0" d="M83.8,56.1l-5.6-9.8c0-0.3,0-0.6,0-0.9s0-0.6,0-0.9l5.6-9.8L74,29.3c-0.3-0.5-0.6-1-0.9-1.5V16.5H61.9
	c-0.5-0.3-1-0.6-1.5-0.9l-5.6-9.7L45,11.5c-0.3,0-0.6,0-0.9,0s-0.6,0-0.9,0l-9.8-5.6l-5.6,9.7c-0.5,0.3-1,0.6-1.5,0.9H15.2v11.2
	c-0.3,0.5-0.6,1-0.9,1.5l-9.7,5.6l5.6,9.8c0,0.3,0,0.6,0,0.9s0,0.6,0,0.9l-5.6,9.8l9.7,5.6c0.3,0.5,0.6,1,0.9,1.5v11.2h11.2
	c0.5,0.3,1,0.6,1.5,0.9l5.6,9.7l9.8-5.6c0.3,0,0.6,0,0.9,0s0.6,0,0.9,0l9.8,5.6l5.6-9.7c0.5-0.3,1-0.6,1.5-0.9h11.2V63.3
	c0.3-0.5,0.6-1,0.9-1.5L83.8,56.1z"/>
</svg>
